# xmcd
#
# Track frame offsets:
#	150
#	13408
#	39814
#	54917
#	71154
#	94329
#	117532
#	140454
#	158585
#	170940
#	187004
#	202663
#	220064
#	236328
#	252181
#
# Disc length: 3822 seconds
#
# Revision: 0
# Processed by: cddbd v1.5.2PL0 Copyright (c) Steve Scherf et al.
# Submitted via: EZCDAudioConverter 1.3.4.1
#
DISCID=d20eec0f
DTITLE=Test STEREO Hörtest-CD Volume VIII
DYEAR=2015
DGENRE=Jazz/Blues/Klassik/Pop/Rock
TTITLE0=Aram Chatschaturjan - Masquerade Suite - Galop
TTITLE1=Antonio Forcione and Sabina Sciubba - Visions
TTITLE2=Doug MacLeod - Rosa Lee
TTITLE3=Carolin No - Still Waters Run Deep
TTITLE4=G. Paniagua/Atrium Musicae de Madrid - Principalis. Fermescens/Indica 
TTITLE4=Exacta
TTITLE5=CC Coletti - Whole Lotta Love
TTITLE6=Blues Company - If I Only Could
TTITLE7=Hanne Boel - Mad World
TTITLE8=Hands On Strings - Conga
TTITLE9=Lyn Stanley - A Summer Place
TTITLE10=Franz Liszt - Prelude On B-A-C-H
TTITLE11=Wolfgang Bernreuther - For Ole
TTITLE12=Otis Taylor - If They Wore Blue
TTITLE13=Diana Panton - So Nice
TTITLE14=Maurive Ravel - Alborada Del Gracioso
EXTD=
EXTT0=
EXTT1=
EXTT2=
EXTT3=
EXTT4=
EXTT5=
EXTT6=
EXTT7=
EXTT8=
EXTT9=
EXTT10=
EXTT11=
EXTT12=
EXTT13=
EXTT14=
PLAYORDER=
